<mxfile host="app.diagrams.net" agent="Mozilla/5.0 (Windows NT 10.0; Win64; x64) AppleWebKit/537.36 (KHTML, like Gecko) Chrome/132.0.0.0 Safari/537.36 Edg/132.0.0.0" version="26.0.11" pages="2">
  <diagram name="Promotion" id="c7488fd3-1785-93aa-aadb-54a6760d102a">
    <mxGraphModel dx="1375" dy="785" grid="1" gridSize="10" guides="1" tooltips="1" connect="1" arrows="1" fold="1" page="1" pageScale="1" pageWidth="1100" pageHeight="850" background="none" math="0" shadow="0">
      <root>
        <mxCell id="0" />
        <mxCell id="1" parent="0" />
        <mxCell id="1DSml5iqkr1MZ7udWZme-7" value="Promotion Process (Monthly Scheduled)" style="rounded=1;whiteSpace=wrap;html=1;absoluteArcSize=1;arcSize=14;strokeWidth=2;verticalAlign=bottom;" vertex="1" parent="1">
          <mxGeometry x="250" y="143" width="330" height="130" as="geometry" />
        </mxCell>
        <mxCell id="1DSml5iqkr1MZ7udWZme-9" style="edgeStyle=orthogonalEdgeStyle;rounded=0;orthogonalLoop=1;jettySize=auto;html=1;entryX=0;entryY=0.5;entryDx=0;entryDy=0;" edge="1" parent="1" source="1DSml5iqkr1MZ7udWZme-4" target="1DSml5iqkr1MZ7udWZme-7">
          <mxGeometry relative="1" as="geometry" />
        </mxCell>
        <mxCell id="1DSml5iqkr1MZ7udWZme-4" value="Start" style="strokeWidth=2;html=1;shape=mxgraph.flowchart.start_1;whiteSpace=wrap;" vertex="1" parent="1">
          <mxGeometry x="95" y="178" width="100" height="60" as="geometry" />
        </mxCell>
        <mxCell id="1DSml5iqkr1MZ7udWZme-5" value="MIS Data" style="strokeWidth=2;html=1;shape=mxgraph.flowchart.direct_data;whiteSpace=wrap;" vertex="1" parent="1">
          <mxGeometry x="430" y="178" width="100" height="60" as="geometry" />
        </mxCell>
        <mxCell id="1DSml5iqkr1MZ7udWZme-6" value="PMS Ratings" style="strokeWidth=2;html=1;shape=mxgraph.flowchart.multi-document;whiteSpace=wrap;" vertex="1" parent="1">
          <mxGeometry x="290" y="178" width="88" height="60" as="geometry" />
        </mxCell>
        <mxCell id="1DSml5iqkr1MZ7udWZme-13" style="edgeStyle=orthogonalEdgeStyle;rounded=0;orthogonalLoop=1;jettySize=auto;html=1;exitX=1;exitY=0.5;exitDx=0;exitDy=0;entryX=0;entryY=0.5;entryDx=0;entryDy=0;" edge="1" parent="1" source="1DSml5iqkr1MZ7udWZme-26" target="1DSml5iqkr1MZ7udWZme-10">
          <mxGeometry relative="1" as="geometry">
            <mxPoint x="545" y="388" as="sourcePoint" />
          </mxGeometry>
        </mxCell>
        <mxCell id="1DSml5iqkr1MZ7udWZme-15" value="" style="edgeStyle=orthogonalEdgeStyle;rounded=0;orthogonalLoop=1;jettySize=auto;html=1;" edge="1" parent="1" source="1DSml5iqkr1MZ7udWZme-10" target="1DSml5iqkr1MZ7udWZme-14">
          <mxGeometry relative="1" as="geometry" />
        </mxCell>
        <mxCell id="1DSml5iqkr1MZ7udWZme-10" value="Supervisor /&amp;nbsp;&lt;div&gt;HR Admin&lt;br&gt;&lt;br&gt;Initiation of&amp;nbsp;&lt;/div&gt;&lt;div&gt;Promotion&amp;nbsp;&lt;/div&gt;&lt;div&gt;Request&lt;/div&gt;" style="verticalLabelPosition=middle;verticalAlign=middle;html=1;shape=trapezoid;perimeter=trapezoidPerimeter;whiteSpace=wrap;size=0.23;arcSize=10;flipV=1;labelPosition=center;align=center;" vertex="1" parent="1">
          <mxGeometry x="620" y="338" width="170" height="100" as="geometry" />
        </mxCell>
        <mxCell id="1DSml5iqkr1MZ7udWZme-12" style="edgeStyle=orthogonalEdgeStyle;rounded=0;orthogonalLoop=1;jettySize=auto;html=1;entryX=0.5;entryY=0;entryDx=0;entryDy=0;" edge="1" parent="1" source="1DSml5iqkr1MZ7udWZme-7" target="1DSml5iqkr1MZ7udWZme-26">
          <mxGeometry relative="1" as="geometry">
            <mxPoint x="414.9999999999998" y="338" as="targetPoint" />
          </mxGeometry>
        </mxCell>
        <mxCell id="1DSml5iqkr1MZ7udWZme-17" value="" style="edgeStyle=orthogonalEdgeStyle;rounded=0;orthogonalLoop=1;jettySize=auto;entryX=0.5;entryY=0;entryDx=0;entryDy=0;entryPerimeter=0;" edge="1" parent="1" source="1DSml5iqkr1MZ7udWZme-14" target="1DSml5iqkr1MZ7udWZme-16">
          <mxGeometry relative="1" as="geometry">
            <mxPoint x="955" y="468" as="targetPoint" />
          </mxGeometry>
        </mxCell>
        <mxCell id="1DSml5iqkr1MZ7udWZme-14" value="HR Admin" style="verticalLabelPosition=middle;verticalAlign=middle;html=1;shape=trapezoid;perimeter=trapezoidPerimeter;whiteSpace=wrap;size=0.23;arcSize=10;flipV=1;labelPosition=center;align=center;" vertex="1" parent="1">
          <mxGeometry x="870" y="338" width="170" height="100" as="geometry" />
        </mxCell>
        <mxCell id="1DSml5iqkr1MZ7udWZme-19" value="Yes" style="edgeStyle=orthogonalEdgeStyle;rounded=0;orthogonalLoop=1;jettySize=auto;html=1;exitX=0;exitY=0.5;exitDx=0;exitDy=0;exitPerimeter=0;entryX=1;entryY=0.5;entryDx=0;entryDy=0;" edge="1" parent="1" source="1DSml5iqkr1MZ7udWZme-16" target="1DSml5iqkr1MZ7udWZme-18">
          <mxGeometry relative="1" as="geometry" />
        </mxCell>
        <mxCell id="1DSml5iqkr1MZ7udWZme-16" value="Appro&lt;span style=&quot;background-color: transparent; color: light-dark(rgb(0, 0, 0), rgb(255, 255, 255));&quot;&gt;ve?&lt;/span&gt;" style="strokeWidth=2;html=1;shape=mxgraph.flowchart.decision;whiteSpace=wrap;" vertex="1" parent="1">
          <mxGeometry x="905" y="488" width="100" height="100" as="geometry" />
        </mxCell>
        <mxCell id="1DSml5iqkr1MZ7udWZme-18" value="Initiation of Transfer / Promotion Changes" style="rounded=1;whiteSpace=wrap;html=1;absoluteArcSize=1;arcSize=14;strokeWidth=2;" vertex="1" parent="1">
          <mxGeometry x="620" y="488" width="170" height="100" as="geometry" />
        </mxCell>
        <mxCell id="1DSml5iqkr1MZ7udWZme-20" value="End" style="strokeWidth=2;html=1;shape=mxgraph.flowchart.terminator;whiteSpace=wrap;" vertex="1" parent="1">
          <mxGeometry x="905" y="638" width="100" height="60" as="geometry" />
        </mxCell>
        <mxCell id="1DSml5iqkr1MZ7udWZme-21" value="No" style="edgeStyle=orthogonalEdgeStyle;rounded=0;orthogonalLoop=1;jettySize=auto;html=1;exitX=0.5;exitY=1;exitDx=0;exitDy=0;exitPerimeter=0;entryX=0.5;entryY=0;entryDx=0;entryDy=0;entryPerimeter=0;" edge="1" parent="1" source="1DSml5iqkr1MZ7udWZme-16" target="1DSml5iqkr1MZ7udWZme-20">
          <mxGeometry relative="1" as="geometry" />
        </mxCell>
        <mxCell id="1DSml5iqkr1MZ7udWZme-25" value="Yes" style="edgeStyle=orthogonalEdgeStyle;rounded=0;orthogonalLoop=1;jettySize=auto;html=1;exitX=0;exitY=0.5;exitDx=0;exitDy=0;exitPerimeter=0;entryX=1;entryY=0.5;entryDx=0;entryDy=0;" edge="1" parent="1" source="1DSml5iqkr1MZ7udWZme-22" target="1DSml5iqkr1MZ7udWZme-24">
          <mxGeometry relative="1" as="geometry" />
        </mxCell>
        <mxCell id="1DSml5iqkr1MZ7udWZme-29" value="No" style="edgeStyle=orthogonalEdgeStyle;rounded=0;orthogonalLoop=1;jettySize=auto;html=1;exitX=0.5;exitY=1;exitDx=0;exitDy=0;exitPerimeter=0;" edge="1" parent="1" source="1DSml5iqkr1MZ7udWZme-22" target="1DSml5iqkr1MZ7udWZme-27">
          <mxGeometry relative="1" as="geometry" />
        </mxCell>
        <mxCell id="1DSml5iqkr1MZ7udWZme-22" value="Transfer?" style="strokeWidth=2;html=1;shape=mxgraph.flowchart.decision;whiteSpace=wrap;" vertex="1" parent="1">
          <mxGeometry x="365" y="488" width="100" height="100" as="geometry" />
        </mxCell>
        <mxCell id="1DSml5iqkr1MZ7udWZme-23" style="edgeStyle=orthogonalEdgeStyle;rounded=0;orthogonalLoop=1;jettySize=auto;html=1;entryX=1;entryY=0.5;entryDx=0;entryDy=0;entryPerimeter=0;" edge="1" parent="1" source="1DSml5iqkr1MZ7udWZme-18" target="1DSml5iqkr1MZ7udWZme-22">
          <mxGeometry relative="1" as="geometry" />
        </mxCell>
        <mxCell id="1DSml5iqkr1MZ7udWZme-24" value="Transfer Module" style="verticalLabelPosition=bottom;verticalAlign=top;html=1;shape=process;whiteSpace=wrap;rounded=1;size=0.14;arcSize=6;" vertex="1" parent="1">
          <mxGeometry x="60" y="488" width="170" height="100" as="geometry" />
        </mxCell>
        <mxCell id="1DSml5iqkr1MZ7udWZme-26" value="Promotion Data Extract" style="shape=parallelogram;html=1;strokeWidth=2;perimeter=parallelogramPerimeter;whiteSpace=wrap;rounded=1;arcSize=12;size=0.23;" vertex="1" parent="1">
          <mxGeometry x="292.5" y="348" width="245" height="80" as="geometry" />
        </mxCell>
        <mxCell id="1DSml5iqkr1MZ7udWZme-27" value="&lt;div&gt;&lt;br&gt;&lt;/div&gt;Transfer / Promotion&amp;nbsp;&lt;div&gt;Data Changes&lt;/div&gt;" style="strokeWidth=2;html=1;shape=mxgraph.flowchart.database;whiteSpace=wrap;" vertex="1" parent="1">
          <mxGeometry x="345" y="628" width="140" height="80" as="geometry" />
        </mxCell>
        <mxCell id="1DSml5iqkr1MZ7udWZme-28" style="edgeStyle=orthogonalEdgeStyle;rounded=0;orthogonalLoop=1;jettySize=auto;html=1;exitX=0.5;exitY=1;exitDx=0;exitDy=0;entryX=0;entryY=0.5;entryDx=0;entryDy=0;entryPerimeter=0;" edge="1" parent="1" source="1DSml5iqkr1MZ7udWZme-24" target="1DSml5iqkr1MZ7udWZme-27">
          <mxGeometry relative="1" as="geometry" />
        </mxCell>
        <mxCell id="1DSml5iqkr1MZ7udWZme-30" style="edgeStyle=orthogonalEdgeStyle;rounded=0;orthogonalLoop=1;jettySize=auto;html=1;exitX=1;exitY=0.5;exitDx=0;exitDy=0;exitPerimeter=0;entryX=0;entryY=0.5;entryDx=0;entryDy=0;entryPerimeter=0;" edge="1" parent="1" source="1DSml5iqkr1MZ7udWZme-27" target="1DSml5iqkr1MZ7udWZme-20">
          <mxGeometry relative="1" as="geometry" />
        </mxCell>
      </root>
    </mxGraphModel>
  </diagram>
  <diagram id="yWiKLz5uOGc2_7TPWRLM" name="Pre-boarding">
    <mxGraphModel dx="1179" dy="673" grid="1" gridSize="10" guides="1" tooltips="1" connect="1" arrows="1" fold="1" page="1" pageScale="1" pageWidth="827" pageHeight="1169" math="0" shadow="0">
      <root>
        <mxCell id="0" />
        <mxCell id="1" parent="0" />
        <mxCell id="gWIA2KhBZrpW_sq9JMmx-12" style="edgeStyle=orthogonalEdgeStyle;rounded=0;orthogonalLoop=1;jettySize=auto;html=1;exitX=0.5;exitY=0.5;exitDx=0;exitDy=15;exitPerimeter=0;entryX=0.5;entryY=0;entryDx=0;entryDy=0;fontSize=10;" edge="1" parent="1" source="gWIA2KhBZrpW_sq9JMmx-1" target="gWIA2KhBZrpW_sq9JMmx-3">
          <mxGeometry relative="1" as="geometry" />
        </mxCell>
        <mxCell id="gWIA2KhBZrpW_sq9JMmx-1" value="Start" style="html=1;dashed=0;whiteSpace=wrap;shape=mxgraph.dfd.start;fontSize=10;" vertex="1" parent="1">
          <mxGeometry x="250" y="200" width="80" height="30" as="geometry" />
        </mxCell>
        <mxCell id="gWIA2KhBZrpW_sq9JMmx-9" style="edgeStyle=orthogonalEdgeStyle;rounded=0;orthogonalLoop=1;jettySize=auto;html=1;exitX=1;exitY=0.5;exitDx=0;exitDy=0;entryX=0;entryY=0.5;entryDx=0;entryDy=0;fontSize=10;" edge="1" parent="1" source="gWIA2KhBZrpW_sq9JMmx-3" target="gWIA2KhBZrpW_sq9JMmx-4">
          <mxGeometry relative="1" as="geometry" />
        </mxCell>
        <mxCell id="gWIA2KhBZrpW_sq9JMmx-3" value="Preparation of Candidate Data for Bulk Load" style="html=1;dashed=0;whiteSpace=wrap;fontSize=10;" vertex="1" parent="1">
          <mxGeometry x="240" y="250" width="100" height="50" as="geometry" />
        </mxCell>
        <mxCell id="gWIA2KhBZrpW_sq9JMmx-10" style="edgeStyle=orthogonalEdgeStyle;rounded=0;orthogonalLoop=1;jettySize=auto;html=1;exitX=0.5;exitY=1;exitDx=0;exitDy=0;entryX=0.5;entryY=0;entryDx=0;entryDy=0;fontSize=10;" edge="1" parent="1" source="gWIA2KhBZrpW_sq9JMmx-4" target="gWIA2KhBZrpW_sq9JMmx-5">
          <mxGeometry relative="1" as="geometry" />
        </mxCell>
        <mxCell id="gWIA2KhBZrpW_sq9JMmx-4" value="Upload the XLSX and Load Data" style="html=1;dashed=0;whiteSpace=wrap;fontSize=10;" vertex="1" parent="1">
          <mxGeometry x="370" y="250" width="100" height="50" as="geometry" />
        </mxCell>
        <mxCell id="gWIA2KhBZrpW_sq9JMmx-11" style="edgeStyle=orthogonalEdgeStyle;rounded=0;orthogonalLoop=1;jettySize=auto;html=1;exitX=1;exitY=0.5;exitDx=0;exitDy=0;entryX=0;entryY=0.5;entryDx=0;entryDy=0;fontSize=10;" edge="1" parent="1" source="gWIA2KhBZrpW_sq9JMmx-5" target="gWIA2KhBZrpW_sq9JMmx-7">
          <mxGeometry relative="1" as="geometry" />
        </mxCell>
        <mxCell id="gWIA2KhBZrpW_sq9JMmx-16" style="edgeStyle=orthogonalEdgeStyle;rounded=0;orthogonalLoop=1;jettySize=auto;html=1;exitX=0;exitY=0.5;exitDx=0;exitDy=0;fontSize=10;" edge="1" parent="1" source="gWIA2KhBZrpW_sq9JMmx-5" target="gWIA2KhBZrpW_sq9JMmx-15">
          <mxGeometry relative="1" as="geometry" />
        </mxCell>
        <mxCell id="gWIA2KhBZrpW_sq9JMmx-20" style="edgeStyle=orthogonalEdgeStyle;rounded=0;orthogonalLoop=1;jettySize=auto;html=1;entryX=0.5;entryY=0;entryDx=0;entryDy=0;fontSize=10;" edge="1" parent="1" source="gWIA2KhBZrpW_sq9JMmx-5" target="gWIA2KhBZrpW_sq9JMmx-18">
          <mxGeometry relative="1" as="geometry" />
        </mxCell>
        <mxCell id="gWIA2KhBZrpW_sq9JMmx-5" value="Loaded Data (Review/Update)" style="shape=parallelogram;perimeter=parallelogramPerimeter;whiteSpace=wrap;html=1;dashed=0;fontSize=10;" vertex="1" parent="1">
          <mxGeometry x="370" y="337" width="100" height="50" as="geometry" />
        </mxCell>
        <mxCell id="gWIA2KhBZrpW_sq9JMmx-19" style="edgeStyle=orthogonalEdgeStyle;rounded=0;orthogonalLoop=1;jettySize=auto;html=1;entryX=1;entryY=0.5;entryDx=0;entryDy=0;exitX=0.4;exitY=1;exitDx=0;exitDy=0;exitPerimeter=0;curved=1;strokeColor=default;strokeWidth=0.5;fontSize=10;" edge="1" parent="1" source="gWIA2KhBZrpW_sq9JMmx-7" target="gWIA2KhBZrpW_sq9JMmx-18">
          <mxGeometry relative="1" as="geometry" />
        </mxCell>
        <mxCell id="gWIA2KhBZrpW_sq9JMmx-7" value="Intimation to Managers (Email/Alerts)" style="shape=document;whiteSpace=wrap;html=1;boundedLbl=1;dashed=0;flipH=1;fontSize=10;" vertex="1" parent="1">
          <mxGeometry x="500" y="327" width="100" height="70" as="geometry" />
        </mxCell>
        <mxCell id="gWIA2KhBZrpW_sq9JMmx-17" style="edgeStyle=orthogonalEdgeStyle;rounded=0;orthogonalLoop=1;jettySize=auto;html=1;exitX=0.5;exitY=0;exitDx=0;exitDy=0;entryX=0.5;entryY=1;entryDx=0;entryDy=0;fontSize=10;" edge="1" parent="1" source="gWIA2KhBZrpW_sq9JMmx-15" target="gWIA2KhBZrpW_sq9JMmx-3">
          <mxGeometry relative="1" as="geometry" />
        </mxCell>
        <mxCell id="gWIA2KhBZrpW_sq9JMmx-15" value="Data Process" style="shape=ellipse;html=1;dashed=0;whiteSpace=wrap;perimeter=ellipsePerimeter;fontSize=10;" vertex="1" parent="1">
          <mxGeometry x="252.5" y="332" width="75" height="60" as="geometry" />
        </mxCell>
        <mxCell id="gWIA2KhBZrpW_sq9JMmx-22" style="edgeStyle=orthogonalEdgeStyle;rounded=0;orthogonalLoop=1;jettySize=auto;html=1;fontSize=10;" edge="1" parent="1" source="gWIA2KhBZrpW_sq9JMmx-18" target="gWIA2KhBZrpW_sq9JMmx-21">
          <mxGeometry relative="1" as="geometry" />
        </mxCell>
        <mxCell id="gWIA2KhBZrpW_sq9JMmx-18" value="Manager Review&lt;div&gt;for every Candidate&lt;/div&gt;" style="html=1;dashed=0;whiteSpace=wrap;fontSize=10;" vertex="1" parent="1">
          <mxGeometry x="370" y="440" width="100" height="50" as="geometry" />
        </mxCell>
        <mxCell id="gWIA2KhBZrpW_sq9JMmx-27" style="edgeStyle=orthogonalEdgeStyle;rounded=0;orthogonalLoop=1;jettySize=auto;html=1;entryX=1;entryY=0.5;entryDx=0;entryDy=0;fontSize=10;" edge="1" parent="1" source="gWIA2KhBZrpW_sq9JMmx-21" target="gWIA2KhBZrpW_sq9JMmx-25">
          <mxGeometry relative="1" as="geometry" />
        </mxCell>
        <mxCell id="gWIA2KhBZrpW_sq9JMmx-21" value="Document&amp;nbsp;&lt;div&gt;Check&lt;/div&gt;" style="shape=hexagon;perimeter=hexagonPerimeter2;whiteSpace=wrap;html=1;size=0.25;fontSize=10;" vertex="1" parent="1">
          <mxGeometry x="370" y="530" width="100" height="50" as="geometry" />
        </mxCell>
        <mxCell id="gWIA2KhBZrpW_sq9JMmx-28" style="edgeStyle=orthogonalEdgeStyle;rounded=0;orthogonalLoop=1;jettySize=auto;html=1;entryX=0.5;entryY=1;entryDx=0;entryDy=0;fontSize=10;" edge="1" parent="1" source="gWIA2KhBZrpW_sq9JMmx-25" target="gWIA2KhBZrpW_sq9JMmx-26">
          <mxGeometry relative="1" as="geometry" />
        </mxCell>
        <mxCell id="gWIA2KhBZrpW_sq9JMmx-25" value="All Verified?" style="shape=rhombus;html=1;dashed=0;whiteSpace=wrap;perimeter=rhombusPerimeter;fontSize=10;" vertex="1" parent="1">
          <mxGeometry x="245" y="525" width="90" height="60" as="geometry" />
        </mxCell>
        <mxCell id="gWIA2KhBZrpW_sq9JMmx-29" style="edgeStyle=orthogonalEdgeStyle;rounded=0;orthogonalLoop=1;jettySize=auto;html=1;exitX=1;exitY=0.5;exitDx=0;exitDy=0;entryX=0;entryY=0.5;entryDx=0;entryDy=0;fontSize=10;" edge="1" parent="1" source="gWIA2KhBZrpW_sq9JMmx-26" target="gWIA2KhBZrpW_sq9JMmx-18">
          <mxGeometry relative="1" as="geometry" />
        </mxCell>
        <mxCell id="gWIA2KhBZrpW_sq9JMmx-26" value="Status and Comments Update" style="html=1;dashed=0;whiteSpace=wrap;fontSize=10;" vertex="1" parent="1">
          <mxGeometry x="240" y="440" width="100" height="50" as="geometry" />
        </mxCell>
      </root>
    </mxGraphModel>
  </diagram>
</mxfile>
